C:\Users\israe\Dropbox\PhDWork\ExperimentalData\subject1\145\P1S145W10_filtered35.mot
nRows=11
nColumns=28

name C:\Users\israe\Dropbox\PhDWork\ExperimentalData\subject1\145\P1S145W10_filtered35.mot
datacolumns 28
datarows 11
range 0.8400000000 0.8500000000
endheader
time	ground_force_1_vx	ground_force_1_vy	ground_force_1_vz	ground_force_1_px	ground_force_1_py	ground_force_1_pz	ground_moment_1_mx	ground_moment_1_my	ground_moment_1_mz	ground_force_2_vx	ground_force_2_vy	ground_force_2_vz	ground_force_2_px	ground_force_2_py	ground_force_2_pz	ground_moment_2_mx	ground_moment_2_my	ground_moment_2_mz	ground_force_3_vx	ground_force_3_vy	ground_force_3_vz	ground_force_3_px	ground_force_3_py	ground_force_3_pz	ground_moment_3_mx	ground_moment_3_my	ground_moment_3_mz
        0.8400000000	       -0.0000000000	        0.0000000000	       -0.0000000000	        0.2000000000	        0.0000000000	       -0.9030000000	        0.0000000000	       -0.0000000000	       -0.0000000000	      -11.7228759113	      345.7676218355	       -6.9521568554	        0.2000000000	        0.0000000000	       -0.3000000000	       53.0214509480	        4.7191520807	       15.3024761585	        0.0000000000	        0.0000000000	       -0.0000000000	        0.2000000000	       -0.0000000000	        0.3030000000	       -0.0000000000	       -0.0000000000	        0.0000000000	
        0.8410000000	       -0.0000000000	        0.0000000000	       -0.0000000000	        0.2000000000	        0.0000000000	       -0.9030000000	        0.0000000000	       -0.0000000000	       -0.0000000000	      -11.4737857722	      344.4519743908	       -6.9807598673	        0.2000000000	        0.0000000000	       -0.3000000000	       53.1073798750	        4.7057100360	       15.2672182660	        0.0000000000	        0.0000000000	       -0.0000000000	        0.2000000000	       -0.0000000000	        0.3030000000	       -0.0000000000	       -0.0000000000	        0.0000000000	
        0.8420000000	       -0.0000000000	        0.0000000000	       -0.0000000000	        0.2000000000	        0.0000000000	       -0.9030000000	        0.0000000000	       -0.0000000000	       -0.0000000000	      -11.2466934177	      343.2457197409	       -7.0059421462	        0.2000000000	        0.0000000000	       -0.3000000000	       53.2054131264	        4.6942301975	       15.2338194094	        0.0000000000	        0.0000000000	       -0.0000000000	        0.2000000000	       -0.0000000000	        0.3030000000	       -0.0000000000	       -0.0000000000	        0.0000000000	
        0.8430000000	       -0.0000000000	        0.0000000000	       -0.0000000000	        0.2000000000	        0.0000000000	       -0.9030000000	        0.0000000000	       -0.0000000000	       -0.0000000000	      -11.0399921942	      342.1545447674	       -7.0301684118	        0.2000000000	        0.0000000000	       -0.3000000000	       53.3157429552	        4.6845647170	       15.2021335343	        0.0000000000	        0.0000000000	       -0.0000000000	        0.2000000000	       -0.0000000000	        0.3030000000	       -0.0000000000	       -0.0000000000	        0.0000000000	
        0.8440000000	       -0.0000000000	        0.0000000000	       -0.0000000000	        0.2000000000	        0.0000000000	       -0.9030000000	        0.0000000000	        0.0000000000	       -0.0000000000	      -10.8516919665	      341.1801235995	       -7.0553800687	        0.2000000000	        0.0000000000	       -0.3000000000	       53.4391386759	        4.6767608029	       15.1721975466	        0.0000000000	        0.0000000000	       -0.0000000000	        0.2000000000	       -0.0000000000	        0.3030000000	       -0.0000000000	       -0.0000000000	        0.0000000000	
        0.8450000000	        0.0000000000	        0.0000000000	       -0.0000000000	        0.2000000000	        0.0000000000	       -0.9030000000	        0.0000000000	        0.0000000000	       -0.0000000000	      -10.6796084313	      340.3175891746	       -7.0823275907	        0.2000000000	        0.0000000000	       -0.3000000000	       53.5769793584	        4.6708732970	       15.1443023458	        0.0000000000	        0.0000000000	       -0.0000000000	        0.2000000000	       -0.0000000000	        0.3030000000	       -0.0000000000	       -0.0000000000	        0.0000000000	
        0.8460000000	        0.0000000000	        0.0000000000	       -0.0000000000	        0.2000000000	        0.0000000000	       -0.9030000000	        0.0000000000	        0.0000000000	        0.0000000000	      -10.5216306427	      339.5578726108	       -7.1109135010	        0.2000000000	        0.0000000000	       -0.3000000000	       53.7307227093	        4.6668225827	       15.1191028894	        0.0000000000	        0.0000000000	       -0.0000000000	        0.2000000000	       -0.0000000000	        0.3030000000	       -0.0000000000	       -0.0000000000	        0.0000000000	
        0.8470000000	        0.0000000000	        0.0000000000	       -0.0000000000	        0.2000000000	        0.0000000000	       -0.9030000000	        0.0000000000	        0.0000000000	        0.0000000000	      -10.3760172309	      338.8911259139	       -7.1410188402	        0.2000000000	        0.0000000000	       -0.3000000000	       53.9012776787	        4.6644164217	       15.0976156021	        0.0000000000	        0.0000000000	       -0.0000000000	        0.2000000000	       -0.0000000000	        0.3030000000	       -0.0000000000	       -0.0000000000	        0.0000000000	
        0.8480000000	        0.0000000000	        0.0000000000	       -0.0000000000	        0.2000000000	        0.0000000000	       -0.9030000000	        0.0000000000	        0.0000000000	        0.0000000000	      -10.2417326742	      338.3088151673	       -7.1726756703	        0.2000000000	        0.0000000000	       -0.3000000000	       54.0887106998	        4.6635174043	       15.0811492408	        0.0000000000	        0.0000000000	       -0.0000000000	        0.2000000000	       -0.0000000000	        0.3030000000	       -0.0000000000	       -0.0000000000	        0.0000000000	
        0.8490000000	        0.0000000000	        0.0000000000	        0.0000000000	        0.2000000000	        0.0000000000	       -0.9030000000	       -0.0000000000	        0.0000000000	        0.0000000000	      -10.1187099631	      337.8053945320	       -7.2060154992	        0.2000000000	        0.0000000000	       -0.3000000000	       54.2922437022	        4.6641632956	       15.0710387912	        0.0000000000	        0.0000000000	       -0.0000000000	        0.2000000000	       -0.0000000000	        0.3030000000	       -0.0000000000	       -0.0000000000	        0.0000000000	
        0.8500000000	        0.0000000000	        0.0000000000	        0.0000000000	        0.2000000000	        0.0000000000	       -0.9030000000	       -0.0000000000	        0.0000000000	        0.0000000000	      -10.0076765780	      337.3797284242	       -7.2415767481	        0.2000000000	        0.0000000000	       -0.3000000000	       54.5104936754	        4.6665159950	       15.0682254902	        0.0000000000	        0.0000000000	       -0.0000000000	        0.2000000000	       -0.0000000000	        0.3030000000	       -0.0000000000	       -0.0000000000	        0.0000000000	
